<?xml version="1.0" encoding="UTF-8"?><svg id="b" xmlns="http://www.w3.org/2000/svg" viewBox="0 0 604.3 619.9"><defs><style>.e{fill:#f0f;}</style></defs><g id="c"><g id="d"><path class="e" d="M242.5,2c.9,0,1.8,0,2.6,0,0,0,0,.1.1.2.6.7,1.4,1,2.5,1s.9,0,1.4-.1c.2,0,.5,0,.7,0h0s.5.5.5.5c.4.3,1,.7,2,.7s.5,0,.7,0v.8s2,0,2,0h.2c1.9,0,4.3.5,6.8,1,3.1.6,6.2,1.2,9.3,1.2s2.5-.1,3.6-.3h.1s.1,0,.1,0c10.1-3.4,26.7-3.7,42.8-3.7h3.1s2.9,0,2.9,0c3.6,0,7.5,0,10.8-.1,3.4.7,7,1.3,10.5,1.9,12.9,2.2,26.3,4.6,37.2,10.8l.4.2h.4c5.9.6,11.1,3.2,16.7,6,1.6.8,3.3,1.6,5,2.5,3.8,3.2,8.4,6,13.4,8.9,8,4.8,16.3,9.8,21.3,16.8h0c0,.1,0,.2,0,.2,7.3,7.9,14.2,11.7,21,11.8.9.9,2.3,1,3.3,1s1.1,0,1.5,0c0,0,0,0,0,0,1,.9,2.6,1,4.1,1s1.4,0,2,0c0,0,.1,0,.2,0,1,.9,2.5,1,3.8,1s1.3,0,1.8,0c0,0,0,0,0,0,.9.9,2.2,1,3.1,1s.7,0,1,0c.4.5,1.1.8,1.8.9.5.6,1.1.9,1.9,1,.5.6,1.1.9,1.9,1,.5.6,1.3,1,2.3,1s.3,0,.5,0c6.7,4,13,7.7,19.1,10,12.1,8.6,20.5,21,28.7,32.9.7,1,1.4,2.1,2.1,3.1.6,3.8,3,4.9,4.6,5.6,1.1.5,1.5.8,1.8,1.3l.3.8.8.3c1.5.5,3,1.5,4.6,2.4,2.5,1.5,5.1,3.1,7.9,3.4,1,.7,2.1,1.5,3.2,2.2,8.8,6,18.8,12.8,26,21.3,9.4,13.4,13.8,29.8,12.5,47.4-1.2,16.5-7.3,32.8-17.3,45.8-14.4,16.2-32.1,26.4-50.8,37.2-9.3,5.4-19,11-28.4,17.4h-.1c0,0-.1.2-.1.2-7.8,7.2-17,13.4-25.9,19.3-7.5,5-14.6,9.8-20.9,15.1-4.2,1.6-7.7,4.4-11,7.2-3.1,2.5-6,4.9-9.4,6.5-1.7,0-2.9,1.1-4,1.9-.7.6-1.4,1.1-2,1.2l-1.7.2v1.7s0,0,0,0c0,.2-.9.6-1.3.8-1,.6-2.4,1.3-3.1,2.7-12.1,4.5-13.3,15.2-14.5,26.5-1.5,14-3.1,28.4-24.4,36.1-.7,0-1.4,0-2.1,0-9,0-14.4-5.5-20.9-13.3-.3-2.8-1.7-3.5-2.9-3.5-1.4,0-2.5,1-3.7,2.1-.6.5-1.9,1.6-2.4,1.7h-.8c0-.1-.7.3-.7.3-14.2,10.1-29.4,20.4-44.1,30.4-20.6,14-41.8,28.4-61.7,43.1-6.3,1.5-11,7.1-14,16.5v.3c-.1,0,0,.3,0,.3.1,3.3-.4,7.5-1.1,8.4l-.7.4v.9c-1.5,9.7-12.3,19.2-21.9,19.2s-4.4-.6-6.2-1.7l-.6-.4h-.7c0,.1-.2.1-.3.1-1.4,0-3.5-1.1-4.1-2.2l-.7-1.4-1.5.4c-4.5,1.1-9.9,5-13.1,8.2-8.3,2.5-13.1,7.6-14.6,15.7-1.3,6.9,0,14.9,1.3,22.6.1.9.3,1.7.4,2.6v.2s0,.2,0,.2c3,8.9,1,19.8-5.2,28.4-5.2,7.2-12.5,11.6-19.5,11.6s-10.7-2.5-15.3-7.6c-2.8-5.5-4.2-11.5-5.5-17.3-.6-2.8-1.2-5.4-2-8l-.9-3-2.4,2.1c-7,6.1-14.2,10.8-21.2,15.2-5.5,3.5-11.3,7.2-16.9,11.6-11.3,8.7-22.3,13.1-32.9,13.1-19.2,0-36-15.2-46.1-41.6v-1.8c.1-10.5.3-23.7,2.8-32l.3-1.1-.8-.8c-.6-.6-2.5-3.6-2.4-14.7,1.1-1.1,1.4-2.4,1.6-3.4,0-.3.2-.7.2-.9l1.3-.6-.3-1.6c-.4-2.2.5-3.8,1.5-5.7.7-1.3,1.4-2.6,1.7-4.1,2.4-1.5,3-3.7,3.4-5.4.3-1,.5-1.8,1-2.2l.3-.3.2-.3c.3-.5.3-1.1.3-1.5h.3s.3-1.5.3-1.5c.4-1.7.7-3.4,1.1-5.1,1.2-6,2.5-12.1,5.1-16.7l.3-.5v-.6c-.2-2.3.3-8.7,1.1-10.2l1.2-.6-.5-1.6c-.6-2.1,0-6.6.5-9.9.2-1.6.4-3,.5-4,5.2-6.1,5.6-13.4,6-20.4.3-5.9.6-11.4,3.8-15.8l.3-.5v-.6c.3-5,2.9-9.2,5.9-14.1.5-.7.9-1.5,1.4-2.3v-.2c.1,0,.2-.2.2-.2,1.6-4.8,1.2-10,.8-15.1-.5-7.1-1-13.7,3.9-18.4l.6-.5v-.8c.2-2.2.9-2.9,2.8-4.5l.4-.3.6-.5v-.8c0,0,0-.2,0-.2,0-.2,0-.4,0-.5,0,0,0,0,.1,0,.2-.1.5-.3.8-.5l.3-.2.2-.3c1.3-1.8,2.5-4.1,3.6-6.3,1-1.9,1.9-3.7,2.7-4.8.9-1.1.7-2.6.5-3.9,0-.2,0-.4,0-.7h0s.6-.9.6-.9c.7-1,.5-2.2.4-3.1l.5-.8c.7-1,.6-2.1.4-3h.8s0-1.9,0-1.9c.5-15.1,1.7-26.5,13.2-35l.5-.4.2-.6c2.1-6.1,3-13.1,3.8-19.8.9-7.3,1.8-14.3,4.1-19.9l.2-.5v-.6c-.6-3,.4-5,1.7-7.5.7-1.5,1.6-3.1,2.1-5.1,1.8-1.5,2.9-3.6,3.8-5.3.5-1,1.1-2.2,1.6-2.6l.2-.2.2-.2c4-5.8,5-16.2,4.3-23.5,1.9-4.9,4.3-9,6.9-13.4,3.2-5.3,6.5-10.8,8.6-17.8,1.3-1.2,1.5-3.2,1.7-5.1,0-.9.3-2.6.6-3,1.9-.6,1.6-2.8,1.4-4.1,0,0,0-.2,0-.3l1.4.3-.5-2.9c-.2-1,.1-2.2.5-3.5.4-1.4.8-3,.6-4.7,1-1.1.9-3,.8-3.9,0-.2,0-.4,0-.6l1.3-.2-.3-2c-.5-3.2,2-6.3,4.3-9.4,2.4-3.1,4.7-6.1,3.8-9.3v-.3c0,0-.3-.3-.3-.3-11-16.8-21.4-34.7-17-52.9v-.2s0-.2,0-.2c.5-25.2,15.9-55.6,44.4-65h0s0,0,0,0c6.5-2.4,16-3.9,25.3-3.9s14.7,1,19.4,2.9h.3c0,.1.3.1.3.1,1.3,0,2.6.1,4,.1,6.7,0,13.2-1.1,19.4-2.1,6.3-1,12.2-2,18.4-2M242.5,0c-12.8,0-24.8,4.1-37.8,4.1s-2.5,0-3.8-.1c-5.3-2.1-12.6-3-20.1-3-9.4,0-19.2,1.5-26,4-28,9.3-45.2,39.1-45.8,66.9-4.6,19.3,6.7,38.3,17.3,54.5,1.3,4.8-9.3,11-8.2,18.5-2.3.3.4,5.1-2,5.4.9,3.3-1.4,6.5-.9,9.5,0,0-.2,0-.3,0-1.7,0,.2,4.6-.7,4.8-2.8.9-1.1,7.8-3.4,8.7-3.6,12.9-11.5,20.4-15.8,32.2.8,7.4-.4,17.4-3.9,22.7-1.8,1.5-2.9,6.3-5.9,8.3-1.1,5.3-5,8.2-4,14.1-4.7,11.3-3.7,27.4-8,39.8-12.8,9.4-13.6,22.3-14.1,36.5-2,0-.3,2.9-1,3.8-2,0-.3,2.9-1,3.8,0,0,0,0,0,0-2.2,0,0,4.3-.9,5.3-1.9,2.6-4,7.9-6.4,11.2-1.9,1.2-1.8.7-1.9,2.9-2.2,1.9-3.7,3-3.8,6.2-9.4,8.9-1.6,23.2-5.3,34.3-3.6,6-7.3,11-7.6,17.3-7.5,10.5-.3,25.9-10.1,36.6,0,2.9-2,11.5-.9,15.3-1.6.8-2,9.9-1.9,12-3.5,6.1-4.6,14.8-6.4,22.3-1.6,0-.4,1.7-.8,2.7-2.1,2.1-.9,6-4.8,7.8-.2,3.9-4.3,6.4-3.3,11.4-1.6.7-.8,3.8-2.9,5.1,0,4.6,0,14,2.9,17.1-2.8,9.3-2.8,23.7-2.9,34.8,10.1,26.7,27.2,43.3,48.1,43.3s22.1-4.2,34.1-13.5c12.6-9.9,25.5-15.8,38.2-26.9,2.4,8.1,3.4,17.4,7.8,25.8,5.4,5.9,11.3,8.4,17,8.4,17.5,0,33-23.5,26.6-42.6-2.5-15.7-6.6-33.6,11.9-38.7,2.7-2.9,8.2-6.9,12.5-8,.9,1.8,3.8,3.3,5.9,3.3s.4,0,.6,0c2.2,1.4,4.7,2,7.2,2,10.2,0,22.2-9.8,23.7-20.9,1.8-1.1,2-7.8,1.9-10.1,1.8-5.8,5.4-13.6,12.9-15.2,34.4-25.4,72.4-49.7,106.2-73.7,0,0,.2,0,.3,0,2.1,0,4.7-3.8,6.1-3.8.5,0,.9.6,1,2.2,6.4,7.8,12.4,14.5,22.8,14.5s1.7,0,2.6-.1c41.1-14.7,13.7-54.2,40-63,.7-2.7,4.9-2.5,4.9-5.1,2.3-.3,3.8-3,5.9-3,0,0,.2,0,.2,0,8-3.3,13.2-11.2,21.1-13.9,13.9-11.8,32.6-21.4,47.1-34.7,27.8-19.1,57.6-30.2,79.6-55,20.3-26.6,25.4-66.7,4.9-95.7-8.4-10-20.4-17.6-30.1-24.2-4.3-.3-8.4-4.3-12.6-5.8-1.4-3.2-5.7-1.6-6.3-6.9-9-13.2-18.1-27.4-31.8-37.1-6.1-2.3-12.6-6.1-19.4-10.2,0,0-.2,0-.4,0s-.5,0-.7,0c-.5,0-1-.1-.8-.9,0,0-.2,0-.4,0s-.5,0-.7,0c-.5,0-1-.1-.8-.9,0,0-.2,0-.4,0s-.5,0-.7,0c-.5,0-1-.1-.8-.9,0,0-.2,0-.4,0s-.5,0-.7,0c-.5,0-1-.1-.8-.9,0,0-.2,0-.3,0-.5,0-1.3,0-2.1,0s-1.9-.2-1.9-1c0,0-.2,0-.3,0-.6,0-1.7.1-2.7.1s-2.7-.2-2.7-1c0,0-.2,0-.3,0-.6,0-1.8.1-2.9.1s-3-.2-3-1c0,0-.2,0-.3,0-.5,0-1.4.1-2.3.1s-2.2-.2-2.2-1c-.3,0-.7,0-1,0-7.3,0-14-5-19.7-11.1-8.4-11.7-25.5-17.9-35.2-26.2-8-3.7-14.6-8-22.7-8.7-14.3-8.2-32.4-9.8-48.5-13-3.3,0-7,.1-11,.1s-4,0-6,0c-15.4,0-32.8.2-43.5,3.8-1,.2-2.1.3-3.2.3-5.6,0-11.7-2.2-16.2-2.2s-.2,0-.2,0c0-.8-.4-1-.9-1s-1.2.2-1.8.2-.5,0-.7-.2c-.1-.8-.8-1-1.6-1s-1.7.2-2.4.2-1.3-.2-1.1-1.1c-1.4-.1-2.8-.1-4.1-.1h0Z"/></g></g></svg>