<?xml version="1.0" encoding="UTF-8"?><svg id="b" xmlns="http://www.w3.org/2000/svg" viewBox="0 0 604.3 619.9"><g id="c"><path id="d" d="M246.6.1c-.4,2.6,4.8-.6,5.1,1.9.9.8,3.3-1.1,3.4,1,5.4,0,13.2,3.2,19.6,1.9,14.9-5,43.3-3.4,60.5-3.9,16.1,3.2,34.2,4.8,48.5,13,8,.7,14.7,5,22.7,8.7,9.7,8.3,26.8,14.5,35.2,26.2,6,6.4,13.1,11.6,20.7,11.1,0,1.7,3.9.8,4.8,1,0,1.6,5.3.8,6.2,1,0,1.7,4.9.8,5.8,1,0,1.7,3.5.8,4.3,1-.4,1.4,1.4.7,1.9,1-.4,1.4,1.5.7,1.9,1-.4,1.4,1.5.7,1.9,1-.4,1.4,1.5.7,1.9,1,6.8,4.1,13.3,7.9,19.4,10.2,13.7,9.7,22.7,23.9,31.8,37.1.6,5.3,4.9,3.7,6.3,6.9,4.2,1.5,8.3,5.5,12.6,5.8,9.6,6.6,21.7,14.2,30.1,24.2,20.5,29,15.5,69.2-4.9,95.7-22,24.8-51.8,35.9-79.6,55-14.5,13.3-33.2,22.9-47.1,34.7-7.9,2.8-13.1,10.6-21.1,13.9-2.2-.2-3.7,2.7-6.1,3,0,2.7-4.3,2.5-4.9,5.1-26.4,8.8,1,48.3-40,63-12,1.2-18.5-6-25.4-14.4-.3-6-4.3,2-7.4,1.5-33.8,24-71.7,48.4-106.2,73.7-7.5,1.6-11.1,9.4-12.9,15.2,0,2.3-.1,8.9-1.9,10.1-2,13.9-20.1,25.7-31,18.9-2.1.3-5.5-1.3-6.5-3.3-4.3,1.1-9.8,5.1-12.5,8-18.5,5.1-14.4,23-11.9,38.7,8.5,25.4-21.6,58.4-43.6,34.2-4.4-8.4-5.4-17.7-7.8-25.8-12.7,11.1-25.6,17-38.2,26.9-35.9,27.6-67,10.4-82.2-29.8.1-11,.1-25.5,2.9-34.8-2.9-3.1-3-12.5-2.9-17.1,2.1-1.3,1.3-4.3,2.9-5.1-1-5,3.1-7.6,3.3-11.4,4-1.7,2.7-5.7,4.8-7.8.5-1-.8-2.6.8-2.7,1.7-7.5,2.9-16.2,6.4-22.3-.1-2.1.3-11.2,1.9-12-1.1-3.8.9-12.4.9-15.3,9.8-10.7,2.6-26.1,10.1-36.6.3-6.3,3.9-11.4,7.6-17.3,3.6-11.1-4.1-25.4,5.3-34.3.2-3.2,1.7-4.3,3.8-6.2.1-2.2,0-1.7,1.9-2.9,2.4-3.4,4.4-8.7,6.4-11.2.9-1-1.3-5.3,1-5.3.7-1-1-3.8,1-3.8.7-1-1-3.8,1-3.8.5-14.3,1.3-27.2,14.1-36.5,4.3-12.4,3.3-28.5,8-39.8-1-5.9,3-8.9,4-14.1,3-2,4.1-6.8,5.9-8.3,3.6-5.3,4.7-15.3,3.9-22.7,4.3-11.8,12.2-19.2,15.8-32.2,2.3-1,.6-7.9,3.4-8.7.9-.3-1.2-5.3,1-4.8-.5-3,1.8-6.2.9-9.5,2.3-.3-.4-5.1,2-5.4-1.1-7.4,9.5-13.7,8.2-18.5-10.6-16.2-21.9-35.2-17.3-54.5.5-27.8,17.8-57.6,45.8-66.9,12.2-4.6,34.2-5.7,46.1-1,16,1.1,30.1-5,45.8-3.9Z"/></g></svg>